<svg width="16" height="16" viewBox="0 0 16 16" fill="none" xmlns="http://www.w3.org/2000/svg">
<rect width="16" height="16" fill="#050505"/>
<path d="M8.479 4.56743C9.31118 4.56612 10.3743 4.51068 11.1733 4.62407C13.0034 4.88403 13.4711 7.44161 12.2769 8.66118C11.8035 9.14451 11.3316 9.24608 10.6772 9.25981C11.3883 10.0322 12.1508 10.7863 12.8911 11.5332L10.3042 11.5342L8.05029 9.25297L7.3208 9.252L6.16748 9.24907C5.34932 10.0179 4.5236 10.7792 3.69092 11.5323L3.10986 11.5332V9.21977C3.11249 9.18271 3.1138 9.14516 3.1167 9.10747C3.55788 8.64396 4.34249 7.83403 4.9126 7.58403C5.89608 7.15294 10.0241 7.76486 10.5718 7.30571C10.6979 7.19995 10.7662 7.04021 10.7778 6.87797C10.7892 6.71803 10.7416 6.53902 10.6265 6.4229C10.5301 6.32578 10.3976 6.2765 10.2642 6.25981C9.66808 6.18531 8.86661 6.2568 8.24463 6.2559C6.93656 6.2595 4.76416 6.25225 3.10986 6.24125V4.57036L8.479 4.56743Z" fill="white"/>
</svg>
