<svg width="669" height="122" viewBox="0 0 669 122" fill="none" xmlns="http://www.w3.org/2000/svg">
<g clip-path="url(#clip0_1_7)">
<path d="M348.475 2.88539C387.175 3.88013 427.285 1.29875 465.82 3.40302C498.572 5.19071 508.915 47.8251 492.512 71.7409C484.832 82.9389 477.115 86.9224 463.937 89.8669C435.715 90.4978 406.307 90.1122 377.987 90.1039C377.08 99.3837 376.562 109.679 375.88 119.05L341.627 119.062C342.64 108.057 342.887 95.5382 343.615 84.326C345.415 57.1904 347.035 30.0428 348.475 2.88539ZM379.69 62.9435L427.195 63.0808C437.17 63.0973 451.292 64.7627 459.64 59.4484C462.782 55.3382 464.687 52.1012 464.815 46.7516C465.205 29.5469 451.742 29.5439 438.902 29.8425C419.935 30.2836 400.637 29.3699 381.73 30.1013C380.942 40.9737 380.012 52.0644 379.69 62.9435Z" fill="black"/>
<path d="M543.797 3.08625C548.072 2.82893 552.205 2.80044 556.48 2.76743C592.12 2.49136 627.887 3.46588 663.512 2.79147C661.6 9.96547 659.005 17.8386 652.907 22.5775C633.01 38.0576 558.152 20.9519 546.565 33.5797C544.945 35.3426 544.592 37.0545 544.727 39.3741C551.612 55.9074 635.17 38.3134 658.022 58.7529C664.562 64.6043 667.757 72.2292 668.185 80.9298C668.65 90.3964 666.175 99.7046 659.687 106.808C651.512 115.763 639.812 118.435 628.187 119.05L504.97 119.011C506.342 111.699 507.767 102.942 513.115 97.3813C515.417 94.9935 518.087 93.3026 521.395 92.8374C531.07 91.4789 542.342 92.0437 552.22 92.0317C573.272 92.0062 594.19 92.229 615.235 92.2035C619.952 92.1983 626.867 91.6926 630.467 87.9267C631.66 86.6814 632.057 84.7467 631.675 83.0866C631.187 80.9095 629.357 78.0378 627.04 77.2989C619.99 75.0513 612.925 75.7167 605.747 75.1894C581.567 73.4114 545.59 78.5239 524.38 66.8848C518.147 63.464 512.687 55.4468 511.457 48.7274C509.71 39.1393 510.662 27.8566 516.287 19.6525C523.375 9.30002 532.15 5.56935 543.797 3.08625Z" fill="black"/>
<path d="M187.59 2.91211L330.497 2.98789C321.077 35.7536 303.482 30.11 274.368 30.0357L221.023 30.0133C220.834 36.8572 220.325 44.1497 219.908 51.0034L318.347 51.0889C316.63 81.6011 291.985 76.4346 268.562 76.2793L218.119 76.1908L216.928 92.9311L326.027 92.9371C325.69 101.673 325.142 110.193 324.902 118.994C277.853 119.913 227.651 119.053 180.38 119.008C180.991 113.218 181.106 107.338 181.534 101.531C183.948 68.7745 185.014 35.6291 187.59 2.91211Z" fill="black"/>
<path d="M7.06902 2.91352L91.756 2.84452C105.636 2.82276 123.36 1.90004 136.686 3.792C167.206 8.12731 174.999 50.7767 155.082 71.1142C147.187 79.1749 139.319 80.8711 128.406 81.0999C140.266 93.9828 152.986 106.557 165.333 119.016L122.186 119.028L84.6063 80.9813L72.4375 80.9603L53.1993 80.9243C39.5553 93.7457 25.789 106.436 11.9028 118.995L0.706787 119.022C1.33604 104.731 1.21004 93.1381 2.32979 78.5583C9.68804 70.8276 22.768 57.3116 32.2758 53.1443C48.6768 45.9553 117.514 56.1668 126.648 48.5097C128.751 46.746 129.885 44.0836 130.079 41.3777C130.269 38.71 129.487 35.7198 127.566 33.7828C125.96 32.1632 123.744 31.3462 121.519 31.0679C111.579 29.8256 98.218 31.0124 87.8455 30.9974C60.5665 31.0724 33.2876 30.9569 6.0108 30.6516C6.07305 21.4296 6.61602 12.1303 7.06902 2.91352Z" fill="black"/>
</g>
<defs>
<clipPath id="clip0_1_7">
<rect width="669" height="122" fill="white"/>
</clipPath>
</defs>
</svg>
